<svg version="1.1" id="Layer_1" xmlns="http://www.w3.org/2000/svg" xmlns:xlink="http://www.w3.org/1999/xlink" x="0px" y="0px"
	 width="100%" viewBox="0 0 456 470" enable-background="new 0 0 456 470" xml:space="preserve">
<path fill="#000000" opacity="1.000000" stroke="none"
	d="
M129.000000,182.000473
	C103.406342,182.000473 78.312683,182.000473 52.987415,182.000473
	C111.708893,123.588753 170.103714,65.501976 228.039368,7.871936
	C285.405640,65.162155 343.823517,123.502563 402.399078,182.000473
	C311.783173,182.000473 220.641586,182.000473 129.000000,182.000473
z"/>
<path fill="#000000" opacity="1.000000" stroke="none"
	d="
M350.000000,275.998688
	C384.583221,275.998688 418.666443,275.998688 452.852783,275.998688
	C394.276367,334.239105 335.929657,392.251129 278.363953,449.486603
	C278.363953,393.119690 278.363953,334.827332 278.363953,275.998688
	C302.002075,275.998688 325.751038,275.998688 350.000000,275.998688
z"/>
<path fill="#000000" opacity="1.000000" stroke="none"
	d="
M128.000000,276.000519
	C146.470428,276.000519 164.440842,276.000519 182.704987,276.000519
	C182.704987,334.381775 182.704987,392.559113 182.704987,449.875214
	C125.007607,392.203979 66.904396,334.127075 8.751503,276.000519
	C47.848522,276.000519 87.674263,276.000519 128.000000,276.000519
z"/>
</svg>
